<?xml version="1.0" encoding="UTF-8" standalone="no"?><svg xmlns="http://www.w3.org/2000/svg" xmlns:xlink="http://www.w3.org/1999/xlink" contentStyleType="text/css" height="2861px" preserveAspectRatio="none" style="width:736px;height:2861px;background:#FFFFFF;" version="1.1" viewBox="0 0 736 2861" width="736px" zoomAndPan="magnify"><defs/><g><ellipse cx="283.125" cy="20" fill="#222222" rx="10" ry="10" style="stroke:#222222;stroke-width:1.0;"/><polygon fill="none" points="20,40,59,40,66,62.2969,714,62.2969,714,2849.5156,20,2849.5156,20,40" style="stroke:#000000;stroke-width:1.5;"/><line style="stroke:#000000;stroke-width:1.5;" x1="20" x2="66" y1="62.2969" y2="62.2969"/><text fill="#000000" font-family="sans-serif" font-size="14" lengthAdjust="spacing" textLength="33" x="24" y="54.9951">main</text><polygon fill="#F1F1F1" points="204.625,76.2969,361.625,76.2969,373.625,88.2969,361.625,100.2969,204.625,100.2969,192.625,88.2969,204.625,76.2969" style="stroke:#181818;stroke-width:0.5;"/><text fill="#000000" font-family="sans-serif" font-size="11" lengthAdjust="spacing" textLength="157" x="204.625" y="92.105">more than 3 CLI arguments</text><rect fill="#F1F1F1" height="33.9688" rx="12.5" ry="12.5" style="stroke:#181818;stroke-width:0.5;" width="145" x="40" y="110.2969"/><text fill="#000000" font-family="sans-serif" font-size="12" lengthAdjust="spacing" textLength="125" x="50" y="131.4355">print error message</text><ellipse cx="112.5" cy="190.2656" fill="none" rx="11" ry="11" style="stroke:#222222;stroke-width:1.0;"/><ellipse cx="112.5" cy="190.2656" fill="#222222" rx="6" ry="6" style="stroke:#111111;stroke-width:1.0;"/><polygon fill="#F1F1F1" points="406.75,110.2969,500.75,110.2969,512.75,122.2969,500.75,134.2969,406.75,134.2969,394.75,122.2969,406.75,110.2969" style="stroke:#181818;stroke-width:0.5;"/><text fill="#000000" font-family="sans-serif" font-size="11" lengthAdjust="spacing" textLength="94" x="406.75" y="126.105">no CLI argument</text><rect fill="#F1F1F1" height="33.9688" rx="12.5" ry="12.5" style="stroke:#181818;stroke-width:0.5;" width="233" x="215" y="144.2969"/><text fill="#000000" font-family="sans-serif" font-size="12" lengthAdjust="spacing" textLength="213" x="225" y="165.4355">use default filename for config file</text><rect fill="#F1F1F1" height="33.9688" rx="12.5" ry="12.5" style="stroke:#181818;stroke-width:0.5;" width="216" x="468" y="144.2969"/><text fill="#000000" font-family="sans-serif" font-size="12" lengthAdjust="spacing" textLength="196" x="478" y="165.4355">get filename from CLI argument</text><polygon fill="#F1F1F1" points="453.75,184.2656,465.75,196.2656,453.75,208.2656,441.75,196.2656,453.75,184.2656" style="stroke:#181818;stroke-width:0.5;"/><polygon fill="none" points="193.625,249.2656,358.625,249.2656,365.625,271.5625,372.625,271.5625,372.625,477.4688,193.625,477.4688,193.625,249.2656" style="stroke:#000000;stroke-width:1.5;"/><line style="stroke:#000000;stroke-width:1.5;" x1="193.625" x2="365.625" y1="271.5625" y2="271.5625"/><text fill="#000000" font-family="sans-serif" font-size="14" lengthAdjust="spacing" textLength="159" x="197.625" y="264.2607">Renderer::instantiation</text><rect fill="#F1F1F1" height="33.9688" rx="12.5" ry="12.5" style="stroke:#181818;stroke-width:0.5;" width="78" x="244.125" y="285.5625"/><text fill="#000000" font-family="sans-serif" font-size="12" lengthAdjust="spacing" textLength="58" x="254.125" y="306.7012">SDL_Init()</text><rect fill="#F1F1F1" height="33.9688" rx="12.5" ry="12.5" style="stroke:#181818;stroke-width:0.5;" width="148" x="209.125" y="354.5313"/><text fill="#000000" font-family="sans-serif" font-size="12" lengthAdjust="spacing" textLength="128" x="219.125" y="375.6699">SDL_CreateWindow()</text><rect fill="#F1F1F1" height="33.9688" rx="12.5" ry="12.5" style="stroke:#181818;stroke-width:0.5;" width="159" x="203.625" y="423.5"/><text fill="#000000" font-family="sans-serif" font-size="12" lengthAdjust="spacing" textLength="139" x="213.625" y="444.6387">SDL_CreateRenderer()</text><polygon fill="none" points="87.125,512.4688,228.125,512.4688,235.125,534.7656,459.125,534.7656,459.125,929.9375,87.125,929.9375,87.125,512.4688" style="stroke:#000000;stroke-width:1.5;"/><line style="stroke:#000000;stroke-width:1.5;" x1="87.125" x2="235.125" y1="534.7656" y2="534.7656"/><text fill="#000000" font-family="sans-serif" font-size="14" lengthAdjust="spacing" textLength="135" x="91.125" y="527.4639">Game::instantiation</text><polygon fill="none" points="97.125,548.7656,238.125,548.7656,245.125,571.0625,449.125,571.0625,449.125,772,97.125,772,97.125,548.7656" style="stroke:#000000;stroke-width:1.5;"/><line style="stroke:#000000;stroke-width:1.5;" x1="97.125" x2="245.125" y1="571.0625" y2="571.0625"/><text fill="#000000" font-family="sans-serif" font-size="14" lengthAdjust="spacing" textLength="135" x="101.125" y="563.7607">Player::instantiation</text><rect fill="#F1F1F1" height="33.9688" rx="12.5" ry="12.5" style="stroke:#181818;stroke-width:0.5;" width="103" x="231.625" y="585.0625"/><text fill="#000000" font-family="sans-serif" font-size="12" lengthAdjust="spacing" textLength="83" x="241.625" y="606.2012">create Player</text><polygon fill="#F1F1F1" points="252.125,654.0313,314.125,654.0313,326.125,666.0313,314.125,678.0313,252.125,678.0313,240.125,666.0313,252.125,654.0313" style="stroke:#181818;stroke-width:0.5;"/><text fill="#000000" font-family="sans-serif" font-size="11" lengthAdjust="spacing" textLength="62" x="252.125" y="669.8394">demoMode</text><rect fill="#F1F1F1" height="33.9688" rx="12.5" ry="12.5" style="stroke:#181818;stroke-width:0.5;" width="166" x="117.125" y="688.0313"/><text fill="#000000" font-family="sans-serif" font-size="12" lengthAdjust="spacing" textLength="146" x="127.125" y="709.1699">create VirtualController</text><rect fill="#F1F1F1" height="33.9688" rx="12.5" ry="12.5" style="stroke:#181818;stroke-width:0.5;" width="126" x="303.125" y="688.0313"/><text fill="#000000" font-family="sans-serif" font-size="12" lengthAdjust="spacing" textLength="106" x="313.125" y="709.1699">create Controller</text><polygon fill="#F1F1F1" points="283.125,728,295.125,740,283.125,752,271.125,740,283.125,728" style="stroke:#181818;stroke-width:0.5;"/><rect fill="#F1F1F1" height="33.9688" rx="12.5" ry="12.5" style="stroke:#181818;stroke-width:0.5;" width="190" x="188.125" y="807"/><text fill="#000000" font-family="sans-serif" font-size="12" lengthAdjust="spacing" textLength="170" x="198.125" y="828.1387">add player to list of players</text><rect fill="#F1F1F1" height="33.9688" rx="12.5" ry="12.5" style="stroke:#181818;stroke-width:0.5;" width="95" x="235.625" y="875.9688"/><text fill="#000000" font-family="sans-serif" font-size="12" lengthAdjust="spacing" textLength="75" x="245.625" y="897.1074">PlaceFood()</text><polygon fill="none" points="69.125,964.9375,149.125,964.9375,156.125,987.2344,518.125,987.2344,518.125,2772.5156,69.125,2772.5156,69.125,964.9375" style="stroke:#000000;stroke-width:1.5;"/><line style="stroke:#000000;stroke-width:1.5;" x1="69.125" x2="156.125" y1="987.2344" y2="987.2344"/><text fill="#000000" font-family="sans-serif" font-size="14" lengthAdjust="spacing" textLength="74" x="73.125" y="979.9326">Game::run</text><polygon fill="none" points="185.625,1121.2344,265.625,1121.2344,272.625,1143.5313,380.625,1143.5313,380.625,1211.5,185.625,1211.5,185.625,1121.2344" style="stroke:#000000;stroke-width:1.5;"/><line style="stroke:#000000;stroke-width:1.5;" x1="185.625" x2="272.625" y1="1143.5313" y2="1143.5313"/><text fill="#000000" font-family="sans-serif" font-size="14" lengthAdjust="spacing" textLength="74" x="189.625" y="1136.2295">Player::run</text><rect fill="#F1F1F1" height="33.9688" rx="12.5" ry="12.5" style="stroke:#181818;stroke-width:0.5;" width="175" x="195.625" y="1157.5313"/><text fill="#000000" font-family="sans-serif" font-size="12" lengthAdjust="spacing" textLength="155" x="205.625" y="1178.6699">Controller::HandleInput()</text><polygon fill="#F1F1F1" points="283.125,1049.2344,295.125,1061.2344,283.125,1073.2344,271.125,1061.2344,283.125,1049.2344" style="stroke:#181818;stroke-width:0.5;"/><polygon fill="#F1F1F1" points="218.625,1259.5,347.625,1259.5,359.625,1271.5,347.625,1283.5,218.625,1283.5,206.625,1271.5,218.625,1259.5" style="stroke:#181818;stroke-width:0.5;"/><text fill="#000000" font-family="sans-serif" font-size="11" lengthAdjust="spacing" textLength="129" x="218.625" y="1275.3081">more player available?</text><rect fill="#F1F1F1" height="33.9688" rx="12.5" ry="12.5" style="stroke:#181818;stroke-width:0.5;" width="129" x="218.625" y="1438.5"/><text fill="#000000" font-family="sans-serif" font-size="12" lengthAdjust="spacing" textLength="109" x="228.625" y="1459.6387">isRunning is false</text><polygon fill="#F1F1F1" points="222.625,1390.5,343.625,1390.5,355.625,1402.5,343.625,1414.5,222.625,1414.5,210.625,1402.5,222.625,1390.5" style="stroke:#181818;stroke-width:0.5;"/><text fill="#000000" font-family="sans-serif" font-size="11" lengthAdjust="spacing" textLength="121" x="222.625" y="1406.3081">player is terminated?</text><polygon fill="#F1F1F1" points="283.125,1496.4688,295.125,1508.4688,283.125,1520.4688,271.125,1508.4688,283.125,1496.4688" style="stroke:#181818;stroke-width:0.5;"/><polygon fill="#F1F1F1" points="283.125,1318.5,295.125,1330.5,283.125,1342.5,271.125,1330.5,283.125,1318.5" style="stroke:#181818;stroke-width:0.5;"/><polygon fill="#F1F1F1" points="126.125,1568.4688,440.125,1568.4688,452.125,1580.4688,440.125,1592.4688,126.125,1592.4688,114.125,1580.4688,126.125,1568.4688" style="stroke:#181818;stroke-width:0.5;"/><text fill="#000000" font-family="sans-serif" font-size="11" lengthAdjust="spacing" textLength="306" x="130.125" y="1584.2769">(more player available?) || (any player is terminated?)</text><polygon fill="none" points="178.625,1699.4688,286.625,1699.4688,293.625,1721.7656,387.625,1721.7656,387.625,1858.7031,178.625,1858.7031,178.625,1699.4688" style="stroke:#000000;stroke-width:1.5;"/><line style="stroke:#000000;stroke-width:1.5;" x1="178.625" x2="293.625" y1="1721.7656" y2="1721.7656"/><text fill="#000000" font-family="sans-serif" font-size="14" lengthAdjust="spacing" textLength="102" x="182.625" y="1714.4639">Snake::update</text><rect fill="#F1F1F1" height="33.9688" rx="12.5" ry="12.5" style="stroke:#181818;stroke-width:0.5;" width="189" x="188.625" y="1735.7656"/><text fill="#000000" font-family="sans-serif" font-size="12" lengthAdjust="spacing" textLength="169" x="198.625" y="1756.9043">Move Head to new position</text><rect fill="#F1F1F1" height="33.9688" rx="12.5" ry="12.5" style="stroke:#181818;stroke-width:0.5;" width="189" x="188.625" y="1804.7344"/><text fill="#000000" font-family="sans-serif" font-size="12" lengthAdjust="spacing" textLength="169" x="198.625" y="1825.873">follow body to new position</text><polygon fill="#F1F1F1" points="283.125,1627.4688,295.125,1639.4688,283.125,1651.4688,271.125,1639.4688,283.125,1627.4688" style="stroke:#181818;stroke-width:0.5;"/><polygon fill="#F1F1F1" points="218.625,1906.7031,347.625,1906.7031,359.625,1918.7031,347.625,1930.7031,218.625,1930.7031,206.625,1918.7031,218.625,1906.7031" style="stroke:#181818;stroke-width:0.5;"/><text fill="#000000" font-family="sans-serif" font-size="11" lengthAdjust="spacing" textLength="129" x="218.625" y="1922.5112">more player available?</text><rect fill="#F1F1F1" height="33.9688" rx="12.5" ry="12.5" style="stroke:#181818;stroke-width:0.5;" width="115" x="225.625" y="2085.7031"/><text fill="#000000" font-family="sans-serif" font-size="12" lengthAdjust="spacing" textLength="95" x="235.625" y="2106.8418">place new food</text><polygon fill="#F1F1F1" points="214.625,2037.7031,351.625,2037.7031,363.625,2049.7031,351.625,2061.7031,214.625,2061.7031,202.625,2049.7031,214.625,2037.7031" style="stroke:#181818;stroke-width:0.5;"/><text fill="#000000" font-family="sans-serif" font-size="11" lengthAdjust="spacing" textLength="137" x="214.625" y="2053.5112">player has catched food</text><polygon fill="#F1F1F1" points="283.125,2143.6719,295.125,2155.6719,283.125,2167.6719,271.125,2155.6719,283.125,2143.6719" style="stroke:#181818;stroke-width:0.5;"/><polygon fill="#F1F1F1" points="283.125,1965.7031,295.125,1977.7031,283.125,1989.7031,271.125,1977.7031,283.125,1965.7031" style="stroke:#181818;stroke-width:0.5;"/><polygon fill="#F1F1F1" points="115.125,2215.6719,451.125,2215.6719,463.125,2227.6719,451.125,2239.6719,115.125,2239.6719,103.125,2227.6719,115.125,2215.6719" style="stroke:#181818;stroke-width:0.5;"/><text fill="#000000" font-family="sans-serif" font-size="11" lengthAdjust="spacing" textLength="328" x="119.125" y="2231.48">(more player available?) || (any player has catched food?)</text><rect fill="#F1F1F1" height="33.9688" rx="12.5" ry="12.5" style="stroke:#181818;stroke-width:0.5;" width="109" x="228.625" y="2274.6719"/><text fill="#000000" font-family="sans-serif" font-size="12" lengthAdjust="spacing" textLength="89" x="238.625" y="2295.8105">start renderer</text><rect fill="#F1F1F1" height="33.9688" rx="12.5" ry="12.5" style="stroke:#181818;stroke-width:0.5;" width="94" x="236.125" y="2343.6406"/><text fill="#000000" font-family="sans-serif" font-size="12" lengthAdjust="spacing" textLength="74" x="246.125" y="2364.7793">render food</text><rect fill="#F1F1F1" height="33.9688" rx="12.5" ry="12.5" style="stroke:#181818;stroke-width:0.5;" width="204" x="181.125" y="2484.6094"/><text fill="#000000" font-family="sans-serif" font-size="12" lengthAdjust="spacing" textLength="184" x="191.125" y="2505.748">render snake for every player</text><polygon fill="#F1F1F1" points="283.125,2412.6094,295.125,2424.6094,283.125,2436.6094,271.125,2424.6094,283.125,2412.6094" style="stroke:#181818;stroke-width:0.5;"/><polygon fill="#F1F1F1" points="218.625,2566.5781,347.625,2566.5781,359.625,2578.5781,347.625,2590.5781,218.625,2590.5781,206.625,2578.5781,218.625,2566.5781" style="stroke:#181818;stroke-width:0.5;"/><text fill="#000000" font-family="sans-serif" font-size="11" lengthAdjust="spacing" textLength="129" x="218.625" y="2582.3862">more player available?</text><rect fill="#F1F1F1" height="33.9688" rx="12.5" ry="12.5" style="stroke:#181818;stroke-width:0.5;" width="321" x="122.625" y="2625.5781"/><text fill="#000000" font-family="sans-serif" font-size="12" lengthAdjust="spacing" textLength="301" x="132.625" y="2646.7168">update window title with current game statistics</text><rect fill="#F1F1F1" height="33.9688" rx="12.5" ry="12.5" style="stroke:#181818;stroke-width:0.5;" width="194" x="186.125" y="2694.5469"/><text fill="#000000" font-family="sans-serif" font-size="12" lengthAdjust="spacing" textLength="174" x="196.125" y="2715.6855">calculate current SDL_Delay</text><polygon fill="#F1F1F1" points="252.625,1001.2344,313.625,1001.2344,325.625,1013.2344,313.625,1025.2344,252.625,1025.2344,240.625,1013.2344,252.625,1001.2344" style="stroke:#181818;stroke-width:0.5;"/><text fill="#000000" font-family="sans-serif" font-size="11" lengthAdjust="spacing" textLength="61" x="252.625" y="1017.0425">isRunning?</text><ellipse cx="283.125" cy="2818.5156" fill="none" rx="11" ry="11" style="stroke:#222222;stroke-width:1.0;"/><ellipse cx="283.125" cy="2818.5156" fill="#222222" rx="6" ry="6" style="stroke:#111111;stroke-width:1.0;"/><line style="stroke:#181818;stroke-width:1.0;" x1="112.5" x2="112.5" y1="144.2656" y2="179.2656"/><polygon fill="#181818" points="108.5,169.2656,112.5,179.2656,116.5,169.2656,112.5,173.2656" style="stroke:#181818;stroke-width:1.0;"/><line style="stroke:#181818;stroke-width:1.0;" x1="394.75" x2="331.5" y1="122.2969" y2="122.2969"/><line style="stroke:#181818;stroke-width:1.0;" x1="331.5" x2="331.5" y1="122.2969" y2="144.2969"/><polygon fill="#181818" points="327.5,134.2969,331.5,144.2969,335.5,134.2969,331.5,138.2969" style="stroke:#181818;stroke-width:1.0;"/><line style="stroke:#181818;stroke-width:1.0;" x1="512.75" x2="576" y1="122.2969" y2="122.2969"/><line style="stroke:#181818;stroke-width:1.0;" x1="576" x2="576" y1="122.2969" y2="144.2969"/><polygon fill="#181818" points="572,134.2969,576,144.2969,580,134.2969,576,138.2969" style="stroke:#181818;stroke-width:1.0;"/><line style="stroke:#181818;stroke-width:1.0;" x1="331.5" x2="331.5" y1="178.2656" y2="196.2656"/><line style="stroke:#181818;stroke-width:1.0;" x1="331.5" x2="441.75" y1="196.2656" y2="196.2656"/><polygon fill="#181818" points="431.75,192.2656,441.75,196.2656,431.75,200.2656,435.75,196.2656" style="stroke:#181818;stroke-width:1.0;"/><line style="stroke:#181818;stroke-width:1.0;" x1="576" x2="576" y1="178.2656" y2="196.2656"/><line style="stroke:#181818;stroke-width:1.0;" x1="576" x2="465.75" y1="196.2656" y2="196.2656"/><polygon fill="#181818" points="475.75,192.2656,465.75,196.2656,475.75,200.2656,471.75,196.2656" style="stroke:#181818;stroke-width:1.0;"/><line style="stroke:#181818;stroke-width:1.0;" x1="192.625" x2="112.5" y1="88.2969" y2="88.2969"/><line style="stroke:#181818;stroke-width:1.0;" x1="112.5" x2="112.5" y1="88.2969" y2="110.2969"/><polygon fill="#181818" points="108.5,100.2969,112.5,110.2969,116.5,100.2969,112.5,104.2969" style="stroke:#181818;stroke-width:1.0;"/><line style="stroke:#181818;stroke-width:1.0;" x1="373.625" x2="453.75" y1="88.2969" y2="88.2969"/><line style="stroke:#181818;stroke-width:1.0;" x1="453.75" x2="453.75" y1="88.2969" y2="110.2969"/><polygon fill="#181818" points="449.75,100.2969,453.75,110.2969,457.75,100.2969,453.75,104.2969" style="stroke:#181818;stroke-width:1.0;"/><line style="stroke:#181818;stroke-width:1.0;" x1="453.75" x2="453.75" y1="208.2656" y2="214.2656"/><line style="stroke:#181818;stroke-width:1.0;" x1="453.75" x2="283.125" y1="214.2656" y2="214.2656"/><line style="stroke:#181818;stroke-width:1.0;" x1="283.125" x2="283.125" y1="214.2656" y2="285.5625"/><polygon fill="#181818" points="279.125,275.5625,283.125,285.5625,287.125,275.5625,283.125,279.5625" style="stroke:#181818;stroke-width:1.0;"/><line style="stroke:#181818;stroke-width:1.0;" x1="283.125" x2="283.125" y1="319.5313" y2="354.5313"/><polygon fill="#181818" points="279.125,344.5313,283.125,354.5313,287.125,344.5313,283.125,348.5313" style="stroke:#181818;stroke-width:1.0;"/><line style="stroke:#181818;stroke-width:1.0;" x1="283.125" x2="283.125" y1="388.5" y2="423.5"/><polygon fill="#181818" points="279.125,413.5,283.125,423.5,287.125,413.5,283.125,417.5" style="stroke:#181818;stroke-width:1.0;"/><line style="stroke:#181818;stroke-width:1.0;" x1="240.125" x2="200.125" y1="666.0313" y2="666.0313"/><line style="stroke:#181818;stroke-width:1.0;" x1="200.125" x2="200.125" y1="666.0313" y2="688.0313"/><polygon fill="#181818" points="196.125,678.0313,200.125,688.0313,204.125,678.0313,200.125,682.0313" style="stroke:#181818;stroke-width:1.0;"/><line style="stroke:#181818;stroke-width:1.0;" x1="326.125" x2="366.125" y1="666.0313" y2="666.0313"/><line style="stroke:#181818;stroke-width:1.0;" x1="366.125" x2="366.125" y1="666.0313" y2="688.0313"/><polygon fill="#181818" points="362.125,678.0313,366.125,688.0313,370.125,678.0313,366.125,682.0313" style="stroke:#181818;stroke-width:1.0;"/><line style="stroke:#181818;stroke-width:1.0;" x1="200.125" x2="200.125" y1="722" y2="740"/><line style="stroke:#181818;stroke-width:1.0;" x1="200.125" x2="271.125" y1="740" y2="740"/><polygon fill="#181818" points="261.125,736,271.125,740,261.125,744,265.125,740" style="stroke:#181818;stroke-width:1.0;"/><line style="stroke:#181818;stroke-width:1.0;" x1="366.125" x2="366.125" y1="722" y2="740"/><line style="stroke:#181818;stroke-width:1.0;" x1="366.125" x2="295.125" y1="740" y2="740"/><polygon fill="#181818" points="305.125,736,295.125,740,305.125,744,301.125,740" style="stroke:#181818;stroke-width:1.0;"/><line style="stroke:#181818;stroke-width:1.0;" x1="283.125" x2="283.125" y1="619.0313" y2="654.0313"/><polygon fill="#181818" points="279.125,644.0313,283.125,654.0313,287.125,644.0313,283.125,648.0313" style="stroke:#181818;stroke-width:1.0;"/><line style="stroke:#181818;stroke-width:1.0;" x1="283.125" x2="283.125" y1="752" y2="807"/><polygon fill="#181818" points="279.125,797,283.125,807,287.125,797,283.125,801" style="stroke:#181818;stroke-width:1.0;"/><line style="stroke:#181818;stroke-width:1.0;" x1="283.125" x2="283.125" y1="840.9688" y2="875.9688"/><polygon fill="#181818" points="279.125,865.9688,283.125,875.9688,287.125,865.9688,283.125,869.9688" style="stroke:#181818;stroke-width:1.0;"/><line style="stroke:#181818;stroke-width:1.0;" x1="283.125" x2="283.125" y1="457.4688" y2="585.0625"/><polygon fill="#181818" points="279.125,575.0625,283.125,585.0625,287.125,575.0625,283.125,579.0625" style="stroke:#181818;stroke-width:1.0;"/><line style="stroke:#181818;stroke-width:1.0;" x1="283.125" x2="283.125" y1="1073.2344" y2="1157.5313"/><polygon fill="#181818" points="279.125,1147.5313,283.125,1157.5313,287.125,1147.5313,283.125,1151.5313" style="stroke:#181818;stroke-width:1.0;"/><line style="stroke:#181818;stroke-width:1.0;" x1="359.625" x2="392.625" y1="1271.5" y2="1271.5"/><polygon fill="#181818" points="388.625,1176.3672,392.625,1166.3672,396.625,1176.3672,392.625,1172.3672" style="stroke:#181818;stroke-width:1.0;"/><line style="stroke:#181818;stroke-width:1.0;" x1="392.625" x2="392.625" y1="1061.2344" y2="1271.5"/><line style="stroke:#181818;stroke-width:1.0;" x1="392.625" x2="295.125" y1="1061.2344" y2="1061.2344"/><polygon fill="#181818" points="305.125,1057.2344,295.125,1061.2344,305.125,1065.2344,301.125,1061.2344" style="stroke:#181818;stroke-width:1.0;"/><line style="stroke:#181818;stroke-width:1.0;" x1="283.125" x2="283.125" y1="1191.5" y2="1259.5"/><polygon fill="#181818" points="279.125,1249.5,283.125,1259.5,287.125,1249.5,283.125,1253.5" style="stroke:#181818;stroke-width:1.0;"/><line style="stroke:#181818;stroke-width:1.0;" x1="283.125" x2="283.125" y1="1414.5" y2="1438.5"/><polygon fill="#181818" points="279.125,1428.5,283.125,1438.5,287.125,1428.5,283.125,1432.5" style="stroke:#181818;stroke-width:1.0;"/><line style="stroke:#181818;stroke-width:1.0;" x1="355.625" x2="367.625" y1="1402.5" y2="1402.5"/><polygon fill="#181818" points="363.625,1445.4844,367.625,1455.4844,371.625,1445.4844,367.625,1449.4844" style="stroke:#181818;stroke-width:1.0;"/><line style="stroke:#181818;stroke-width:1.0;" x1="367.625" x2="367.625" y1="1402.5" y2="1508.4688"/><line style="stroke:#181818;stroke-width:1.0;" x1="367.625" x2="295.125" y1="1508.4688" y2="1508.4688"/><polygon fill="#181818" points="305.125,1504.4688,295.125,1508.4688,305.125,1512.4688,301.125,1508.4688" style="stroke:#181818;stroke-width:1.0;"/><line style="stroke:#181818;stroke-width:1.0;" x1="283.125" x2="283.125" y1="1472.4688" y2="1496.4688"/><polygon fill="#181818" points="279.125,1486.4688,283.125,1496.4688,287.125,1486.4688,283.125,1490.4688" style="stroke:#181818;stroke-width:1.0;"/><line style="stroke:#181818;stroke-width:1.0;" x1="283.125" x2="283.125" y1="1342.5" y2="1390.5"/><polygon fill="#181818" points="279.125,1380.5,283.125,1390.5,287.125,1380.5,283.125,1384.5" style="stroke:#181818;stroke-width:1.0;"/><line style="stroke:#181818;stroke-width:1.0;" x1="452.125" x2="464.125" y1="1580.4688" y2="1580.4688"/><polygon fill="#181818" points="460.125,1465.4844,464.125,1455.4844,468.125,1465.4844,464.125,1461.4844" style="stroke:#181818;stroke-width:1.0;"/><line style="stroke:#181818;stroke-width:1.0;" x1="464.125" x2="464.125" y1="1330.5" y2="1580.4688"/><line style="stroke:#181818;stroke-width:1.0;" x1="464.125" x2="295.125" y1="1330.5" y2="1330.5"/><polygon fill="#181818" points="305.125,1326.5,295.125,1330.5,305.125,1334.5,301.125,1330.5" style="stroke:#181818;stroke-width:1.0;"/><line style="stroke:#181818;stroke-width:1.0;" x1="283.125" x2="283.125" y1="1520.4688" y2="1568.4688"/><polygon fill="#181818" points="279.125,1558.4688,283.125,1568.4688,287.125,1558.4688,283.125,1562.4688" style="stroke:#181818;stroke-width:1.0;"/><line style="stroke:#181818;stroke-width:1.0;" x1="283.125" x2="283.125" y1="1283.5" y2="1318.5"/><polygon fill="#181818" points="279.125,1308.5,283.125,1318.5,287.125,1308.5,283.125,1312.5" style="stroke:#181818;stroke-width:1.0;"/><line style="stroke:#181818;stroke-width:1.0;" x1="283.125" x2="283.125" y1="1769.7344" y2="1804.7344"/><polygon fill="#181818" points="279.125,1794.7344,283.125,1804.7344,287.125,1794.7344,283.125,1798.7344" style="stroke:#181818;stroke-width:1.0;"/><line style="stroke:#181818;stroke-width:1.0;" x1="283.125" x2="283.125" y1="1651.4688" y2="1735.7656"/><polygon fill="#181818" points="279.125,1725.7656,283.125,1735.7656,287.125,1725.7656,283.125,1729.7656" style="stroke:#181818;stroke-width:1.0;"/><line style="stroke:#181818;stroke-width:1.0;" x1="359.625" x2="399.625" y1="1918.7031" y2="1918.7031"/><polygon fill="#181818" points="395.625,1789.0859,399.625,1779.0859,403.625,1789.0859,399.625,1785.0859" style="stroke:#181818;stroke-width:1.0;"/><line style="stroke:#181818;stroke-width:1.0;" x1="399.625" x2="399.625" y1="1639.4688" y2="1918.7031"/><line style="stroke:#181818;stroke-width:1.0;" x1="399.625" x2="295.125" y1="1639.4688" y2="1639.4688"/><polygon fill="#181818" points="305.125,1635.4688,295.125,1639.4688,305.125,1643.4688,301.125,1639.4688" style="stroke:#181818;stroke-width:1.0;"/><line style="stroke:#181818;stroke-width:1.0;" x1="283.125" x2="283.125" y1="1838.7031" y2="1906.7031"/><polygon fill="#181818" points="279.125,1896.7031,283.125,1906.7031,287.125,1896.7031,283.125,1900.7031" style="stroke:#181818;stroke-width:1.0;"/><line style="stroke:#181818;stroke-width:1.0;" x1="283.125" x2="283.125" y1="1592.4688" y2="1627.4688"/><polygon fill="#181818" points="279.125,1617.4688,283.125,1627.4688,287.125,1617.4688,283.125,1621.4688" style="stroke:#181818;stroke-width:1.0;"/><line style="stroke:#181818;stroke-width:1.0;" x1="283.125" x2="283.125" y1="2061.7031" y2="2085.7031"/><polygon fill="#181818" points="279.125,2075.7031,283.125,2085.7031,287.125,2075.7031,283.125,2079.7031" style="stroke:#181818;stroke-width:1.0;"/><line style="stroke:#181818;stroke-width:1.0;" x1="363.625" x2="375.625" y1="2049.7031" y2="2049.7031"/><polygon fill="#181818" points="371.625,2092.6875,375.625,2102.6875,379.625,2092.6875,375.625,2096.6875" style="stroke:#181818;stroke-width:1.0;"/><line style="stroke:#181818;stroke-width:1.0;" x1="375.625" x2="375.625" y1="2049.7031" y2="2155.6719"/><line style="stroke:#181818;stroke-width:1.0;" x1="375.625" x2="295.125" y1="2155.6719" y2="2155.6719"/><polygon fill="#181818" points="305.125,2151.6719,295.125,2155.6719,305.125,2159.6719,301.125,2155.6719" style="stroke:#181818;stroke-width:1.0;"/><line style="stroke:#181818;stroke-width:1.0;" x1="283.125" x2="283.125" y1="2119.6719" y2="2143.6719"/><polygon fill="#181818" points="279.125,2133.6719,283.125,2143.6719,287.125,2133.6719,283.125,2137.6719" style="stroke:#181818;stroke-width:1.0;"/><line style="stroke:#181818;stroke-width:1.0;" x1="283.125" x2="283.125" y1="1989.7031" y2="2037.7031"/><polygon fill="#181818" points="279.125,2027.7031,283.125,2037.7031,287.125,2027.7031,283.125,2031.7031" style="stroke:#181818;stroke-width:1.0;"/><line style="stroke:#181818;stroke-width:1.0;" x1="463.125" x2="475.125" y1="2227.6719" y2="2227.6719"/><polygon fill="#181818" points="471.125,2112.6875,475.125,2102.6875,479.125,2112.6875,475.125,2108.6875" style="stroke:#181818;stroke-width:1.0;"/><line style="stroke:#181818;stroke-width:1.0;" x1="475.125" x2="475.125" y1="1977.7031" y2="2227.6719"/><line style="stroke:#181818;stroke-width:1.0;" x1="475.125" x2="295.125" y1="1977.7031" y2="1977.7031"/><polygon fill="#181818" points="305.125,1973.7031,295.125,1977.7031,305.125,1981.7031,301.125,1977.7031" style="stroke:#181818;stroke-width:1.0;"/><line style="stroke:#181818;stroke-width:1.0;" x1="283.125" x2="283.125" y1="2167.6719" y2="2215.6719"/><polygon fill="#181818" points="279.125,2205.6719,283.125,2215.6719,287.125,2205.6719,283.125,2209.6719" style="stroke:#181818;stroke-width:1.0;"/><line style="stroke:#181818;stroke-width:1.0;" x1="283.125" x2="283.125" y1="1930.7031" y2="1965.7031"/><polygon fill="#181818" points="279.125,1955.7031,283.125,1965.7031,287.125,1955.7031,283.125,1959.7031" style="stroke:#181818;stroke-width:1.0;"/><line style="stroke:#181818;stroke-width:1.0;" x1="283.125" x2="283.125" y1="2239.6719" y2="2274.6719"/><polygon fill="#181818" points="279.125,2264.6719,283.125,2274.6719,287.125,2264.6719,283.125,2268.6719" style="stroke:#181818;stroke-width:1.0;"/><line style="stroke:#181818;stroke-width:1.0;" x1="283.125" x2="283.125" y1="2308.6406" y2="2343.6406"/><polygon fill="#181818" points="279.125,2333.6406,283.125,2343.6406,287.125,2333.6406,283.125,2337.6406" style="stroke:#181818;stroke-width:1.0;"/><line style="stroke:#181818;stroke-width:1.0;" x1="283.125" x2="283.125" y1="2436.6094" y2="2484.6094"/><polygon fill="#181818" points="279.125,2474.6094,283.125,2484.6094,287.125,2474.6094,283.125,2478.6094" style="stroke:#181818;stroke-width:1.0;"/><line style="stroke:#181818;stroke-width:1.0;" x1="359.625" x2="397.125" y1="2578.5781" y2="2578.5781"/><polygon fill="#181818" points="393.125,2511.5938,397.125,2501.5938,401.125,2511.5938,397.125,2507.5938" style="stroke:#181818;stroke-width:1.0;"/><line style="stroke:#181818;stroke-width:1.0;" x1="397.125" x2="397.125" y1="2424.6094" y2="2578.5781"/><line style="stroke:#181818;stroke-width:1.0;" x1="397.125" x2="295.125" y1="2424.6094" y2="2424.6094"/><polygon fill="#181818" points="305.125,2420.6094,295.125,2424.6094,305.125,2428.6094,301.125,2424.6094" style="stroke:#181818;stroke-width:1.0;"/><line style="stroke:#181818;stroke-width:1.0;" x1="283.125" x2="283.125" y1="2518.5781" y2="2566.5781"/><polygon fill="#181818" points="279.125,2556.5781,283.125,2566.5781,287.125,2556.5781,283.125,2560.5781" style="stroke:#181818;stroke-width:1.0;"/><line style="stroke:#181818;stroke-width:1.0;" x1="283.125" x2="283.125" y1="2377.6094" y2="2412.6094"/><polygon fill="#181818" points="279.125,2402.6094,283.125,2412.6094,287.125,2402.6094,283.125,2406.6094" style="stroke:#181818;stroke-width:1.0;"/><line style="stroke:#181818;stroke-width:1.0;" x1="283.125" x2="283.125" y1="2590.5781" y2="2625.5781"/><polygon fill="#181818" points="279.125,2615.5781,283.125,2625.5781,287.125,2615.5781,283.125,2619.5781" style="stroke:#181818;stroke-width:1.0;"/><line style="stroke:#181818;stroke-width:1.0;" x1="283.125" x2="283.125" y1="2659.5469" y2="2694.5469"/><polygon fill="#181818" points="279.125,2684.5469,283.125,2694.5469,287.125,2684.5469,283.125,2688.5469" style="stroke:#181818;stroke-width:1.0;"/><line style="stroke:#181818;stroke-width:1.0;" x1="283.125" x2="283.125" y1="1025.2344" y2="1049.2344"/><polygon fill="#181818" points="279.125,1039.2344,283.125,1049.2344,287.125,1039.2344,283.125,1043.2344" style="stroke:#181818;stroke-width:1.0;"/><line style="stroke:#181818;stroke-width:1.0;" x1="283.125" x2="283.125" y1="2728.5156" y2="2740.5156"/><line style="stroke:#181818;stroke-width:1.0;" x1="283.125" x2="499.125" y1="2740.5156" y2="2740.5156"/><polygon fill="#181818" points="495.125,1886.875,499.125,1876.875,503.125,1886.875,499.125,1882.875" style="stroke:#181818;stroke-width:1.0;"/><line style="stroke:#181818;stroke-width:1.0;" x1="499.125" x2="499.125" y1="1013.2344" y2="2740.5156"/><line style="stroke:#181818;stroke-width:1.0;" x1="499.125" x2="325.625" y1="1013.2344" y2="1013.2344"/><polygon fill="#181818" points="335.625,1009.2344,325.625,1013.2344,335.625,1017.2344,331.625,1013.2344" style="stroke:#181818;stroke-width:1.0;"/><line style="stroke:#181818;stroke-width:1.0;" x1="240.625" x2="91.125" y1="1013.2344" y2="1013.2344"/><polygon fill="#181818" points="87.125,1872.875,91.125,1882.875,95.125,1872.875,91.125,1876.875" style="stroke:#181818;stroke-width:1.0;"/><line style="stroke:#181818;stroke-width:1.0;" x1="91.125" x2="91.125" y1="1013.2344" y2="2752.5156"/><line style="stroke:#181818;stroke-width:1.0;" x1="91.125" x2="283.125" y1="2752.5156" y2="2752.5156"/><line style="stroke:#181818;stroke-width:1.0;" x1="283.125" x2="283.125" y1="2752.5156" y2="2807.5156"/><polygon fill="#181818" points="279.125,2797.5156,283.125,2807.5156,287.125,2797.5156,283.125,2801.5156" style="stroke:#181818;stroke-width:1.0;"/><line style="stroke:#181818;stroke-width:1.0;" x1="283.125" x2="283.125" y1="909.9375" y2="1001.2344"/><polygon fill="#181818" points="279.125,991.2344,283.125,1001.2344,287.125,991.2344,283.125,995.2344" style="stroke:#181818;stroke-width:1.0;"/><line style="stroke:#181818;stroke-width:1.0;" x1="283.125" x2="283.125" y1="30" y2="76.2969"/><polygon fill="#181818" points="279.125,66.2969,283.125,76.2969,287.125,66.2969,283.125,70.2969" style="stroke:#181818;stroke-width:1.0;"/><!--MD5=[65c844a5893bfbd7e93eda9a8299aae0]
@startuml
start
package "main" {

    if (more than 3 CLI arguments) then
        :print error message;
        stop
    else
        if (no CLI argument) then
            :use default filename for config file;
        else
            :get filename from CLI argument;
        endif
    endif
    package Renderer::instantiation {
        :SDL_Init();
        :SDL_CreateWindow();
        :SDL_CreateRenderer();
    }
    package Game::instantiation {
        package Player::instantiation {
            :create Player;
            if (demoMode) then
                :create VirtualController;
            else
                :create Controller;
            endif            
        }
        :add player to list of players;
        :PlaceFood();
    }
    package Game::run {
        while (isRunning?)
            repeat 
                package Player::run {
                    :Controller::HandleInput();
                }
            repeat while (more player available?) 
            repeat 
                if (player is terminated?) then
                    :isRunning is false;
                endif
            repeat while ( (more player available?) || (any player is terminated?) ) 
            repeat
                package Snake::update {
                    :Move Head to new position;
                    :follow body to new position;
                }
            repeat while (more player available?) 
            repeat                
                if (player has catched food) then
                    :place new food;
                endif
            repeat while ( (more player available?) || (any player has catched food?) ) 
            :start renderer;
            :render food;
            repeat                
                :render snake for every player;
            repeat while (more player available?)
            :update window title with current game statistics;
            :calculate current SDL_Delay;        
        endwhile

    }
    stop
}
@enduml

PlantUML version 1.2022.7(Mon Aug 22 17:01:30 UTC 2022)
(GPL source distribution)
Java Runtime: OpenJDK Runtime Environment
JVM: OpenJDK 64-Bit Server VM
Default Encoding: UTF-8
Language: en
Country: null
--></g></svg>