<?xml version="1.0" encoding="UTF-8" standalone="no"?><svg xmlns="http://www.w3.org/2000/svg" xmlns:xlink="http://www.w3.org/1999/xlink" contentStyleType="text/css" height="1926px" preserveAspectRatio="none" style="width:1386px;height:1926px;background:#FFFFFF;" version="1.1" viewBox="0 0 1386 1926" width="1386px" zoomAndPan="magnify"><defs/><g><ellipse cx="928.875" cy="20" fill="#222222" rx="10" ry="10" style="stroke:#222222;stroke-width:1.0;"/><rect fill="#F1F1F1" height="33.9688" rx="12.5" ry="12.5" style="stroke:#181818;stroke-width:0.5;" width="93" x="882.375" y="94"/><text fill="#000000" font-family="sans-serif" font-size="12" lengthAdjust="spacing" textLength="73" x="892.375" y="115.1387">return false</text><ellipse cx="928.875" cy="167.4844" fill="none" rx="11" ry="11" style="stroke:#222222;stroke-width:1.0;"/><ellipse cx="928.875" cy="167.4844" fill="#222222" rx="6" ry="6" style="stroke:#111111;stroke-width:1.0;"/><polygon fill="#F1F1F1" points="844.875,50,1012.875,50,1024.875,62,1012.875,74,844.875,74,832.875,62,844.875,50" style="stroke:#181818;stroke-width:0.5;"/><text fill="#000000" font-family="sans-serif" font-size="11" lengthAdjust="spacing" textLength="168" x="844.875" y="65.8081">SDL_PollEvent() == SDL_QUIT</text><polygon fill="none" points="20,210.4844,153,210.4844,160,232.7813,1364,232.7813,1364,1819.7969,20,1819.7969,20,210.4844" style="stroke:#000000;stroke-width:1.5;"/><line style="stroke:#000000;stroke-width:1.5;" x1="20" x2="160" y1="232.7813" y2="232.7813"/><text fill="#000000" font-family="sans-serif" font-size="14" lengthAdjust="spacing" textLength="127" x="24" y="225.4795">RoutePlanner::run</text><rect fill="#F1F1F1" height="33.9688" rx="12.5" ry="12.5" style="stroke:#181818;stroke-width:0.5;" width="394" x="731.875" y="246.7813"/><text fill="#000000" font-family="sans-serif" font-size="12" lengthAdjust="spacing" textLength="374" x="741.875" y="267.9199">Calculate manahttan-distance from current position to food</text><rect fill="#F1F1F1" height="33.9688" rx="12.5" ry="12.5" style="stroke:#181818;stroke-width:0.5;" width="187" x="835.375" y="315.75"/><text fill="#000000" font-family="sans-serif" font-size="12" lengthAdjust="spacing" textLength="167" x="845.375" y="336.8887">clear list of old neighbours</text><rect fill="#F1F1F1" height="33.9688" rx="12.5" ry="12.5" style="stroke:#181818;stroke-width:0.5;" width="218" x="819.875" y="456.7188"/><text fill="#000000" font-family="sans-serif" font-size="12" lengthAdjust="spacing" textLength="194" x="829.875" y="477.8574">calculate position of candidate</text><rect fill="#F1F1F1" height="33.9688" rx="12.5" ry="12.5" style="stroke:#181818;stroke-width:0.5;" width="119" x="869.375" y="525.6875"/><text fill="#000000" font-family="sans-serif" font-size="12" lengthAdjust="spacing" textLength="99" x="879.375" y="546.8262">verify candidate</text><rect fill="#F1F1F1" height="33.9688" rx="12.5" ry="12.5" style="stroke:#181818;stroke-width:0.5;" width="174" x="841.875" y="642.6563"/><text fill="#000000" font-family="sans-serif" font-size="12" lengthAdjust="spacing" textLength="154" x="851.875" y="663.7949">add to list of neighbours</text><polygon fill="#F1F1F1" points="875.375,594.6563,982.375,594.6563,994.375,606.6563,982.375,618.6563,875.375,618.6563,863.375,606.6563,875.375,594.6563" style="stroke:#181818;stroke-width:0.5;"/><text fill="#000000" font-family="sans-serif" font-size="11" lengthAdjust="spacing" textLength="107" x="875.375" y="610.4644">candidate == valid</text><polygon fill="#F1F1F1" points="928.875,700.625,940.875,712.625,928.875,724.625,916.875,712.625,928.875,700.625" style="stroke:#181818;stroke-width:0.5;"/><path d="M439.875,759.625 L439.875,845.2891 A0,0 0 0 0 439.875,845.2891 L741.875,845.2891 A0,0 0 0 0 741.875,845.2891 L741.875,806.457 L761.875,802.457 L741.875,798.457 L741.875,769.625 L731.875,759.625 L439.875,759.625 A0,0 0 0 0 439.875,759.625 " fill="#FEFFDD" style="stroke:#181818;stroke-width:0.5;"/><path d="M731.875,759.625 L731.875,769.625 L741.875,769.625 L731.875,759.625 " fill="#FEFFDD" style="stroke:#181818;stroke-width:0.5;"/><text fill="#000000" font-family="sans-serif" font-size="13" lengthAdjust="spacing" textLength="268" x="445.875" y="776.6919">every 4 directions (top, bottom, left, right)</text><text fill="#000000" font-family="sans-serif" font-size="13" lengthAdjust="spacing" textLength="277" x="445.875" y="791.8247">are checked if there is a possible neighbour</text><text fill="#000000" font-family="sans-serif" font-size="13" lengthAdjust="spacing" textLength="81" x="445.875" y="806.9575">are available</text><text fill="#000000" font-family="sans-serif" font-size="13" lengthAdjust="spacing" textLength="261" x="445.875" y="822.0903">If the field is already occupied by a snake</text><text fill="#000000" font-family="sans-serif" font-size="13" lengthAdjust="spacing" textLength="195" x="445.875" y="837.2231">this neighbour would be invalid</text><rect fill="#F1F1F1" height="33.9688" rx="12.5" ry="12.5" style="stroke:#181818;stroke-width:0.5;" width="334" x="761.875" y="785.4727"/><text fill="#000000" font-family="sans-serif" font-size="12" lengthAdjust="spacing" textLength="314" x="771.875" y="806.6113">sort list of neighbours with lowest distance at first</text><polygon fill="#F1F1F1" points="928.875,384.7188,940.875,396.7188,928.875,408.7188,916.875,396.7188,928.875,384.7188" style="stroke:#181818;stroke-width:0.5;"/><polygon fill="#F1F1F1" points="850.375,893.2891,1007.375,893.2891,1019.375,905.2891,1007.375,917.2891,850.375,917.2891,838.375,905.2891,850.375,893.2891" style="stroke:#181818;stroke-width:0.5;"/><text fill="#000000" font-family="sans-serif" font-size="11" lengthAdjust="spacing" textLength="157" x="850.375" y="909.0972">all 4 directions are checked</text><polygon fill="none" points="642.375,952.2891,782.375,952.2891,789.375,974.5859,1166.375,974.5859,1166.375,1351.5234,642.375,1351.5234,642.375,952.2891" style="stroke:#000000;stroke-width:1.5;"/><line style="stroke:#000000;stroke-width:1.5;" x1="642.375" x2="789.375" y1="974.5859" y2="974.5859"/><text fill="#000000" font-family="sans-serif" font-size="14" lengthAdjust="spacing" textLength="134" x="646.375" y="967.2842">GetProbableWinner</text><rect fill="#F1F1F1" height="33.9688" rx="12.5" ry="12.5" style="stroke:#181818;stroke-width:0.5;" width="280" x="788.875" y="1060.5859"/><text fill="#000000" font-family="sans-serif" font-size="12" lengthAdjust="spacing" textLength="260" x="798.875" y="1081.7246">check if moving to neighbour would be ok</text><path d="M652.375,1151.707 L652.375,1237.3711 L851.375,1237.3711 L851.375,1161.707 L841.375,1151.707 L652.375,1151.707 " fill="#FEFFDD" style="stroke:#181818;stroke-width:0.5;"/><path d="M841.375,1151.707 L841.375,1161.707 L851.375,1161.707 L841.375,1151.707 " fill="#FEFFDD" style="stroke:#181818;stroke-width:0.5;"/><text fill="#000000" font-family="sans-serif" font-size="13" lengthAdjust="spacing" textLength="176" x="658.375" y="1168.7739">The snake should not move</text><text fill="#000000" font-family="sans-serif" font-size="13" lengthAdjust="spacing" textLength="152" x="658.375" y="1183.9067">in the contrary direction</text><text fill="#000000" font-family="sans-serif" font-size="13" lengthAdjust="spacing" textLength="140" x="658.375" y="1199.0396">to avoid to eat itself ;)</text><text fill="#000000" font-family="sans-serif" font-size="13" lengthAdjust="spacing" textLength="149" x="658.375" y="1214.1724">the direction of the first</text><text fill="#000000" font-family="sans-serif" font-size="13" lengthAdjust="spacing" textLength="178" x="658.375" y="1229.3052">valid neighbour will be used.</text><rect fill="#F1F1F1" height="33.9688" rx="12.5" ry="12.5" style="stroke:#181818;stroke-width:0.5;" width="56" x="900.875" y="1177.5547"/><text fill="#000000" font-family="sans-serif" font-size="12" lengthAdjust="spacing" textLength="36" x="910.875" y="1198.6934">break</text><polygon fill="#F1F1F1" points="883.375,1129.5547,974.375,1129.5547,986.375,1141.5547,974.375,1153.5547,883.375,1153.5547,871.375,1141.5547,883.375,1129.5547" style="stroke:#181818;stroke-width:0.5;"/><text fill="#000000" font-family="sans-serif" font-size="11" lengthAdjust="spacing" textLength="91" x="883.375" y="1145.3628">neighbour is OK</text><polygon fill="#F1F1F1" points="928.875,1235.5234,940.875,1247.5234,928.875,1259.5234,916.875,1247.5234,928.875,1235.5234" style="stroke:#181818;stroke-width:0.5;"/><polygon fill="#F1F1F1" points="928.875,988.5859,940.875,1000.5859,928.875,1012.5859,916.875,1000.5859,928.875,988.5859" style="stroke:#181818;stroke-width:0.5;"/><polygon fill="#F1F1F1" points="737.375,1307.5234,1120.375,1307.5234,1132.375,1319.5234,1120.375,1331.5234,737.375,1331.5234,725.375,1319.5234,737.375,1307.5234" style="stroke:#181818;stroke-width:0.5;"/><text fill="#000000" font-family="sans-serif" font-size="11" lengthAdjust="spacing" textLength="375" x="741.375" y="1323.3315">(any neighbours available?) || (moving to neighbour would be ok?)</text><polygon fill="#F1F1F1" points="853.375,1386.5234,1004.375,1386.5234,1016.375,1398.5234,1004.375,1410.5234,853.375,1410.5234,841.375,1398.5234,853.375,1386.5234" style="stroke:#181818;stroke-width:0.5;"/><text fill="#000000" font-family="sans-serif" font-size="11" lengthAdjust="spacing" textLength="151" x="853.375" y="1402.3315">there is a probable winner</text><rect fill="#F1F1F1" height="33.9688" rx="12.5" ry="12.5" style="stroke:#181818;stroke-width:0.5;" width="283" x="490.75" y="1420.5234"/><text fill="#000000" font-family="sans-serif" font-size="12" lengthAdjust="spacing" textLength="263" x="500.75" y="1441.6621">get the neighbour in the current direction</text><polygon fill="#F1F1F1" points="508.75,1489.4922,755.75,1489.4922,767.75,1501.4922,755.75,1513.4922,508.75,1513.4922,496.75,1501.4922,508.75,1489.4922" style="stroke:#181818;stroke-width:0.5;"/><text fill="#000000" font-family="sans-serif" font-size="11" lengthAdjust="spacing" textLength="247" x="508.75" y="1505.3003">there is a neighbour in the same direction?</text><rect fill="#F1F1F1" height="61.9063" rx="12.5" ry="12.5" style="stroke:#181818;stroke-width:0.5;" width="282" x="170.5" y="1523.4922"/><text fill="#000000" font-family="sans-serif" font-size="12" lengthAdjust="spacing" textLength="239" x="180.5" y="1544.6309">compare the distance of the probable</text><text fill="#000000" font-family="sans-serif" font-size="12" lengthAdjust="spacing" textLength="262" x="180.5" y="1558.5996">winner with the distance of the neighbour</text><text fill="#000000" font-family="sans-serif" font-size="12" lengthAdjust="spacing" textLength="133" x="180.5" y="1572.5684">in the same direction</text><polygon fill="#F1F1F1" points="206,1620.3984,417,1620.3984,429,1632.3984,417,1644.3984,206,1644.3984,194,1632.3984,206,1620.3984" style="stroke:#181818;stroke-width:0.5;"/><text fill="#000000" font-family="sans-serif" font-size="11" lengthAdjust="spacing" textLength="211" x="206" y="1636.2065">probable winner is closer to the food</text><rect fill="#F1F1F1" height="33.9688" rx="12.5" ry="12.5" style="stroke:#181818;stroke-width:0.5;" width="248" x="60" y="1654.3984"/><text fill="#000000" font-family="sans-serif" font-size="12" lengthAdjust="spacing" textLength="228" x="70" y="1675.5371">change direction to probable winner</text><path d="M540,1654.3984 L540,1678.0977 L520,1682.0977 L540,1686.0977 L540,1709.7969 A0,0 0 0 0 540,1709.7969 L799,1709.7969 A0,0 0 0 0 799,1709.7969 L799,1664.3984 L789,1654.3984 L540,1654.3984 A0,0 0 0 0 540,1654.3984 " fill="#FEFFDD" style="stroke:#181818;stroke-width:0.5;"/><path d="M789,1654.3984 L789,1664.3984 L799,1664.3984 L789,1654.3984 " fill="#FEFFDD" style="stroke:#181818;stroke-width:0.5;"/><text fill="#000000" font-family="sans-serif" font-size="13" lengthAdjust="spacing" textLength="230" x="546" y="1671.4653">The neighbour in the same direction</text><text fill="#000000" font-family="sans-serif" font-size="13" lengthAdjust="spacing" textLength="234" x="546" y="1686.5981">would be the best choice. we already</text><text fill="#000000" font-family="sans-serif" font-size="13" lengthAdjust="spacing" textLength="144" x="546" y="1701.731">move in that direction.</text><rect fill="#F1F1F1" height="33.9688" rx="12.5" ry="12.5" style="stroke:#181818;stroke-width:0.5;" width="162" x="358" y="1665.1133"/><text fill="#000000" font-family="sans-serif" font-size="12" lengthAdjust="spacing" textLength="142" x="368" y="1686.252">don't change direction</text><polygon fill="#F1F1F1" points="311.5,1715.7969,323.5,1727.7969,311.5,1739.7969,299.5,1727.7969,311.5,1715.7969" style="stroke:#181818;stroke-width:0.5;"/><rect fill="#F1F1F1" height="33.9688" rx="12.5" ry="12.5" style="stroke:#181818;stroke-width:0.5;" width="248" x="829" y="1523.4922"/><text fill="#000000" font-family="sans-serif" font-size="12" lengthAdjust="spacing" textLength="228" x="839" y="1544.6309">change direction to probable winner</text><polygon fill="#F1F1F1" points="632.25,1745.7969,644.25,1757.7969,632.25,1769.7969,620.25,1757.7969,632.25,1745.7969" style="stroke:#181818;stroke-width:0.5;"/><rect fill="#F1F1F1" height="33.9688" rx="12.5" ry="12.5" style="stroke:#181818;stroke-width:0.5;" width="237" x="1107" y="1420.5234"/><text fill="#000000" font-family="sans-serif" font-size="12" lengthAdjust="spacing" textLength="217" x="1117" y="1441.6621">don't change the current direction</text><polygon fill="#F1F1F1" points="928.875,1775.7969,940.875,1787.7969,928.875,1799.7969,916.875,1787.7969,928.875,1775.7969" style="stroke:#181818;stroke-width:0.5;"/><rect fill="#F1F1F1" height="33.9688" rx="12.5" ry="12.5" style="stroke:#181818;stroke-width:0.5;" width="89" x="884.375" y="1839.7969"/><text fill="#000000" font-family="sans-serif" font-size="12" lengthAdjust="spacing" textLength="69" x="894.375" y="1860.9355">return true</text><ellipse cx="928.875" cy="1904.7656" fill="none" rx="11" ry="11" style="stroke:#222222;stroke-width:1.0;"/><ellipse cx="928.875" cy="1904.7656" fill="#222222" rx="6" ry="6" style="stroke:#111111;stroke-width:1.0;"/><line style="stroke:#181818;stroke-width:1.0;" x1="928.875" x2="928.875" y1="127.9688" y2="156.4844"/><polygon fill="#181818" points="924.875,146.4844,928.875,156.4844,932.875,146.4844,928.875,150.4844" style="stroke:#181818;stroke-width:1.0;"/><line style="stroke:#181818;stroke-width:1.0;" x1="928.875" x2="928.875" y1="74" y2="94"/><polygon fill="#181818" points="924.875,84,928.875,94,932.875,84,928.875,88" style="stroke:#181818;stroke-width:1.0;"/><line style="stroke:#181818;stroke-width:1.0;" x1="1024.875" x2="1036.875" y1="62" y2="62"/><polygon fill="#181818" points="1032.875,126.4844,1036.875,136.4844,1040.875,126.4844,1036.875,130.4844" style="stroke:#181818;stroke-width:1.0;"/><line style="stroke:#181818;stroke-width:1.0;" x1="1036.875" x2="1036.875" y1="62" y2="200.4844"/><line style="stroke:#181818;stroke-width:1.0;" x1="1036.875" x2="928.875" y1="200.4844" y2="200.4844"/><line style="stroke:#181818;stroke-width:1.0;" x1="928.875" x2="928.875" y1="200.4844" y2="246.7813"/><polygon fill="#181818" points="924.875,236.7813,928.875,246.7813,932.875,236.7813,928.875,240.7813" style="stroke:#181818;stroke-width:1.0;"/><line style="stroke:#181818;stroke-width:1.0;" x1="928.875" x2="928.875" y1="30" y2="50"/><polygon fill="#181818" points="924.875,40,928.875,50,932.875,40,928.875,44" style="stroke:#181818;stroke-width:1.0;"/><line style="stroke:#181818;stroke-width:1.0;" x1="928.875" x2="928.875" y1="280.75" y2="315.75"/><polygon fill="#181818" points="924.875,305.75,928.875,315.75,932.875,305.75,928.875,309.75" style="stroke:#181818;stroke-width:1.0;"/><line style="stroke:#181818;stroke-width:1.0;" x1="928.875" x2="928.875" y1="490.6875" y2="525.6875"/><polygon fill="#181818" points="924.875,515.6875,928.875,525.6875,932.875,515.6875,928.875,519.6875" style="stroke:#181818;stroke-width:1.0;"/><line style="stroke:#181818;stroke-width:1.0;" x1="928.875" x2="928.875" y1="618.6563" y2="642.6563"/><polygon fill="#181818" points="924.875,632.6563,928.875,642.6563,932.875,632.6563,928.875,636.6563" style="stroke:#181818;stroke-width:1.0;"/><line style="stroke:#181818;stroke-width:1.0;" x1="994.375" x2="1025.875" y1="606.6563" y2="606.6563"/><polygon fill="#181818" points="1021.875,649.6406,1025.875,659.6406,1029.875,649.6406,1025.875,653.6406" style="stroke:#181818;stroke-width:1.0;"/><line style="stroke:#181818;stroke-width:1.0;" x1="1025.875" x2="1025.875" y1="606.6563" y2="712.625"/><line style="stroke:#181818;stroke-width:1.0;" x1="1025.875" x2="940.875" y1="712.625" y2="712.625"/><polygon fill="#181818" points="950.875,708.625,940.875,712.625,950.875,716.625,946.875,712.625" style="stroke:#181818;stroke-width:1.0;"/><line style="stroke:#181818;stroke-width:1.0;" x1="928.875" x2="928.875" y1="676.625" y2="700.625"/><polygon fill="#181818" points="924.875,690.625,928.875,700.625,932.875,690.625,928.875,694.625" style="stroke:#181818;stroke-width:1.0;"/><line style="stroke:#181818;stroke-width:1.0;" x1="928.875" x2="928.875" y1="559.6563" y2="594.6563"/><polygon fill="#181818" points="924.875,584.6563,928.875,594.6563,932.875,584.6563,928.875,588.6563" style="stroke:#181818;stroke-width:1.0;"/><line style="stroke:#181818;stroke-width:1.0;" x1="928.875" x2="928.875" y1="724.625" y2="785.4727"/><polygon fill="#181818" points="924.875,775.4727,928.875,785.4727,932.875,775.4727,928.875,779.4727" style="stroke:#181818;stroke-width:1.0;"/><line style="stroke:#181818;stroke-width:1.0;" x1="928.875" x2="928.875" y1="408.7188" y2="456.7188"/><polygon fill="#181818" points="924.875,446.7188,928.875,456.7188,932.875,446.7188,928.875,450.7188" style="stroke:#181818;stroke-width:1.0;"/><line style="stroke:#181818;stroke-width:1.0;" x1="1019.375" x2="1107.875" y1="905.2891" y2="905.2891"/><polygon fill="#181818" points="1103.875,661.0039,1107.875,651.0039,1111.875,661.0039,1107.875,657.0039" style="stroke:#181818;stroke-width:1.0;"/><line style="stroke:#181818;stroke-width:1.0;" x1="1107.875" x2="1107.875" y1="396.7188" y2="905.2891"/><line style="stroke:#181818;stroke-width:1.0;" x1="1107.875" x2="940.875" y1="396.7188" y2="396.7188"/><polygon fill="#181818" points="950.875,392.7188,940.875,396.7188,950.875,400.7188,946.875,396.7188" style="stroke:#181818;stroke-width:1.0;"/><line style="stroke:#181818;stroke-width:1.0;" x1="928.875" x2="928.875" y1="819.4414" y2="893.2891"/><polygon fill="#181818" points="924.875,883.2891,928.875,893.2891,932.875,883.2891,928.875,887.2891" style="stroke:#181818;stroke-width:1.0;"/><line style="stroke:#181818;stroke-width:1.0;" x1="928.875" x2="928.875" y1="349.7188" y2="384.7188"/><polygon fill="#181818" points="924.875,374.7188,928.875,384.7188,932.875,374.7188,928.875,378.7188" style="stroke:#181818;stroke-width:1.0;"/><line style="stroke:#181818;stroke-width:1.0;" x1="928.875" x2="928.875" y1="1153.5547" y2="1177.5547"/><polygon fill="#181818" points="924.875,1167.5547,928.875,1177.5547,932.875,1167.5547,928.875,1171.5547" style="stroke:#181818;stroke-width:1.0;"/><line style="stroke:#181818;stroke-width:1.0;" x1="986.375" x2="998.375" y1="1141.5547" y2="1141.5547"/><polygon fill="#181818" points="994.375,1184.5391,998.375,1194.5391,1002.375,1184.5391,998.375,1188.5391" style="stroke:#181818;stroke-width:1.0;"/><line style="stroke:#181818;stroke-width:1.0;" x1="998.375" x2="998.375" y1="1141.5547" y2="1247.5234"/><line style="stroke:#181818;stroke-width:1.0;" x1="998.375" x2="940.875" y1="1247.5234" y2="1247.5234"/><polygon fill="#181818" points="950.875,1243.5234,940.875,1247.5234,950.875,1251.5234,946.875,1247.5234" style="stroke:#181818;stroke-width:1.0;"/><line style="stroke:#181818;stroke-width:1.0;" x1="928.875" x2="928.875" y1="1211.5234" y2="1235.5234"/><polygon fill="#181818" points="924.875,1225.5234,928.875,1235.5234,932.875,1225.5234,928.875,1229.5234" style="stroke:#181818;stroke-width:1.0;"/><line style="stroke:#181818;stroke-width:1.0;" x1="928.875" x2="928.875" y1="1094.5547" y2="1129.5547"/><polygon fill="#181818" points="924.875,1119.5547,928.875,1129.5547,932.875,1119.5547,928.875,1123.5547" style="stroke:#181818;stroke-width:1.0;"/><line style="stroke:#181818;stroke-width:1.0;" x1="928.875" x2="928.875" y1="1012.5859" y2="1060.5859"/><polygon fill="#181818" points="924.875,1050.5859,928.875,1060.5859,932.875,1050.5859,928.875,1054.5859" style="stroke:#181818;stroke-width:1.0;"/><line style="stroke:#181818;stroke-width:1.0;" x1="1132.375" x2="1144.375" y1="1319.5234" y2="1319.5234"/><polygon fill="#181818" points="1140.375,1170.0547,1144.375,1160.0547,1148.375,1170.0547,1144.375,1166.0547" style="stroke:#181818;stroke-width:1.0;"/><line style="stroke:#181818;stroke-width:1.0;" x1="1144.375" x2="1144.375" y1="1000.5859" y2="1319.5234"/><line style="stroke:#181818;stroke-width:1.0;" x1="1144.375" x2="940.875" y1="1000.5859" y2="1000.5859"/><polygon fill="#181818" points="950.875,996.5859,940.875,1000.5859,950.875,1004.5859,946.875,1000.5859" style="stroke:#181818;stroke-width:1.0;"/><line style="stroke:#181818;stroke-width:1.0;" x1="928.875" x2="928.875" y1="1259.5234" y2="1307.5234"/><polygon fill="#181818" points="924.875,1297.5234,928.875,1307.5234,932.875,1297.5234,928.875,1301.5234" style="stroke:#181818;stroke-width:1.0;"/><line style="stroke:#181818;stroke-width:1.0;" x1="928.875" x2="928.875" y1="917.2891" y2="988.5859"/><polygon fill="#181818" points="924.875,978.5859,928.875,988.5859,932.875,978.5859,928.875,982.5859" style="stroke:#181818;stroke-width:1.0;"/><line style="stroke:#181818;stroke-width:1.0;" x1="194" x2="184" y1="1632.3984" y2="1632.3984"/><line style="stroke:#181818;stroke-width:1.0;" x1="184" x2="184" y1="1632.3984" y2="1654.3984"/><polygon fill="#181818" points="180,1644.3984,184,1654.3984,188,1644.3984,184,1648.3984" style="stroke:#181818;stroke-width:1.0;"/><line style="stroke:#181818;stroke-width:1.0;" x1="429" x2="439" y1="1632.3984" y2="1632.3984"/><line style="stroke:#181818;stroke-width:1.0;" x1="439" x2="439" y1="1632.3984" y2="1665.1133"/><polygon fill="#181818" points="435,1655.1133,439,1665.1133,443,1655.1133,439,1659.1133" style="stroke:#181818;stroke-width:1.0;"/><line style="stroke:#181818;stroke-width:1.0;" x1="184" x2="184" y1="1688.3672" y2="1727.7969"/><line style="stroke:#181818;stroke-width:1.0;" x1="184" x2="299.5" y1="1727.7969" y2="1727.7969"/><polygon fill="#181818" points="289.5,1723.7969,299.5,1727.7969,289.5,1731.7969,293.5,1727.7969" style="stroke:#181818;stroke-width:1.0;"/><line style="stroke:#181818;stroke-width:1.0;" x1="439" x2="439" y1="1699.082" y2="1727.7969"/><line style="stroke:#181818;stroke-width:1.0;" x1="439" x2="323.5" y1="1727.7969" y2="1727.7969"/><polygon fill="#181818" points="333.5,1723.7969,323.5,1727.7969,333.5,1731.7969,329.5,1727.7969" style="stroke:#181818;stroke-width:1.0;"/><line style="stroke:#181818;stroke-width:1.0;" x1="311.5" x2="311.5" y1="1585.3984" y2="1620.3984"/><polygon fill="#181818" points="307.5,1610.3984,311.5,1620.3984,315.5,1610.3984,311.5,1614.3984" style="stroke:#181818;stroke-width:1.0;"/><line style="stroke:#181818;stroke-width:1.0;" x1="496.75" x2="311.5" y1="1501.4922" y2="1501.4922"/><line style="stroke:#181818;stroke-width:1.0;" x1="311.5" x2="311.5" y1="1501.4922" y2="1523.4922"/><polygon fill="#181818" points="307.5,1513.4922,311.5,1523.4922,315.5,1513.4922,311.5,1517.4922" style="stroke:#181818;stroke-width:1.0;"/><line style="stroke:#181818;stroke-width:1.0;" x1="767.75" x2="953" y1="1501.4922" y2="1501.4922"/><line style="stroke:#181818;stroke-width:1.0;" x1="953" x2="953" y1="1501.4922" y2="1523.4922"/><polygon fill="#181818" points="949,1513.4922,953,1523.4922,957,1513.4922,953,1517.4922" style="stroke:#181818;stroke-width:1.0;"/><line style="stroke:#181818;stroke-width:1.0;" x1="311.5" x2="311.5" y1="1739.7969" y2="1757.7969"/><line style="stroke:#181818;stroke-width:1.0;" x1="311.5" x2="620.25" y1="1757.7969" y2="1757.7969"/><polygon fill="#181818" points="610.25,1753.7969,620.25,1757.7969,610.25,1761.7969,614.25,1757.7969" style="stroke:#181818;stroke-width:1.0;"/><line style="stroke:#181818;stroke-width:1.0;" x1="953" x2="953" y1="1557.4609" y2="1757.7969"/><line style="stroke:#181818;stroke-width:1.0;" x1="953" x2="644.25" y1="1757.7969" y2="1757.7969"/><polygon fill="#181818" points="654.25,1753.7969,644.25,1757.7969,654.25,1761.7969,650.25,1757.7969" style="stroke:#181818;stroke-width:1.0;"/><line style="stroke:#181818;stroke-width:1.0;" x1="632.25" x2="632.25" y1="1454.4922" y2="1489.4922"/><polygon fill="#181818" points="628.25,1479.4922,632.25,1489.4922,636.25,1479.4922,632.25,1483.4922" style="stroke:#181818;stroke-width:1.0;"/><line style="stroke:#181818;stroke-width:1.0;" x1="841.375" x2="632.25" y1="1398.5234" y2="1398.5234"/><line style="stroke:#181818;stroke-width:1.0;" x1="632.25" x2="632.25" y1="1398.5234" y2="1420.5234"/><polygon fill="#181818" points="628.25,1410.5234,632.25,1420.5234,636.25,1410.5234,632.25,1414.5234" style="stroke:#181818;stroke-width:1.0;"/><line style="stroke:#181818;stroke-width:1.0;" x1="1016.375" x2="1225.5" y1="1398.5234" y2="1398.5234"/><line style="stroke:#181818;stroke-width:1.0;" x1="1225.5" x2="1225.5" y1="1398.5234" y2="1420.5234"/><polygon fill="#181818" points="1221.5,1410.5234,1225.5,1420.5234,1229.5,1410.5234,1225.5,1414.5234" style="stroke:#181818;stroke-width:1.0;"/><line style="stroke:#181818;stroke-width:1.0;" x1="632.25" x2="632.25" y1="1769.7969" y2="1787.7969"/><line style="stroke:#181818;stroke-width:1.0;" x1="632.25" x2="916.875" y1="1787.7969" y2="1787.7969"/><polygon fill="#181818" points="906.875,1783.7969,916.875,1787.7969,906.875,1791.7969,910.875,1787.7969" style="stroke:#181818;stroke-width:1.0;"/><line style="stroke:#181818;stroke-width:1.0;" x1="1225.5" x2="1225.5" y1="1454.4922" y2="1787.7969"/><line style="stroke:#181818;stroke-width:1.0;" x1="1225.5" x2="940.875" y1="1787.7969" y2="1787.7969"/><polygon fill="#181818" points="950.875,1783.7969,940.875,1787.7969,950.875,1791.7969,946.875,1787.7969" style="stroke:#181818;stroke-width:1.0;"/><line style="stroke:#181818;stroke-width:1.0;" x1="928.875" x2="928.875" y1="1331.5234" y2="1386.5234"/><polygon fill="#181818" points="924.875,1376.5234,928.875,1386.5234,932.875,1376.5234,928.875,1380.5234" style="stroke:#181818;stroke-width:1.0;"/><line style="stroke:#181818;stroke-width:1.0;" x1="928.875" x2="928.875" y1="1799.7969" y2="1839.7969"/><polygon fill="#181818" points="924.875,1829.7969,928.875,1839.7969,932.875,1829.7969,928.875,1833.7969" style="stroke:#181818;stroke-width:1.0;"/><line style="stroke:#181818;stroke-width:1.0;" x1="928.875" x2="928.875" y1="1873.7656" y2="1893.7656"/><polygon fill="#181818" points="924.875,1883.7656,928.875,1893.7656,932.875,1883.7656,928.875,1887.7656" style="stroke:#181818;stroke-width:1.0;"/><!--MD5=[0fc0abd56e4a0554cd0fbacb90f1b0b9]
@startuml
start
if (SDL_PollEvent() == SDL_QUIT) then
    :return false;
    stop
endif 
package RoutePlanner::run {
    :Calculate manahttan-distance from current position to food;
    :clear list of old neighbours;
    repeat 
        :calculate position of candidate ;
        :verify candidate;
        if (candidate == valid) then
            :add to list of neighbours;
        endif
        :sort list of neighbours with lowest distance at first;
        note left
            every 4 directions (top, bottom, left, right)
            are checked if there is a possible neighbour 
            are available
            If the field is already occupied by a snake 
            this neighbour would be invalid
        end note
    repeat while (all 4 directions are checked)
    package GetProbableWinner {
        repeat
            :check if moving to neighbour would be ok;
            if (neighbour is OK) then
                :break;
            endif
            note left
                The snake should not move
                in the contrary direction 
                to avoid to eat itself ;)
                the direction of the first
                valid neighbour will be used.
            end note
        repeat while ( (any neighbours available?) || (moving to neighbour would be ok?) )
    }
    if (there is a probable winner) then
        :get the neighbour in the current direction;
        if (there is a neighbour in the same direction?) then
            :compare the distance of the probable\nwinner with the distance of the neighbour\nin the same direction;
            if (probable winner is closer to the food) then
                :change direction to probable winner;
            else
                :don't change direction;
                note right
                    The neighbour in the same direction 
                    would be the best choice. we already 
                    move in that direction.
                end note
            endif
        else
            :change direction to probable winner;
        endif
    else
        :don't change the current direction;
    endif
}
:return true;
stop
@enduml

PlantUML version 1.2022.7(Mon Aug 22 17:01:30 UTC 2022)
(GPL source distribution)
Java Runtime: OpenJDK Runtime Environment
JVM: OpenJDK 64-Bit Server VM
Default Encoding: UTF-8
Language: en
Country: null
--></g></svg>